<svg xmlns="http://www.w3.org/2000/svg" xmlns:xlink="http://www.w3.org/1999/xlink" version="1.1" x="0px" y="0px" viewBox="0 0 64 80" enable-background="new 0 0 64 64" xml:space="preserve"><path d="M34.956,39.428c-1.135,1.028-2.426,1.319-3.29,1.39v10.94c0,1.159-0.797,2.167-1.926,2.434  c-0.191,0.045-0.385,0.066-0.575,0.066c-0.928,0-1.801-0.519-2.232-1.376c-0.209-0.411-5.025-9.624-15.433-9.624  c-1.381,0-2.5-1.119-2.5-2.5V28.424c0-1.381,1.119-2.5,2.5-2.5c11.113,0,15.2-9.099,15.369-9.485  c0.473-1.088,1.647-1.695,2.804-1.456c1.16,0.241,1.993,1.258,1.993,2.442v10.942c0.864,0.07,2.153,0.359,3.29,1.389  c0.862,0.781,1.891,2.255,1.891,4.836S35.818,38.646,34.956,39.428z M46.604,16.378c-1.009-0.451-2.191,0.001-2.642,1.011  c-0.45,1.009,0.002,2.191,1.011,2.642c0.075,0.033,7.54,3.499,7.54,14.895c0,11.271-7.244,14.757-7.54,14.895  c-1.009,0.45-1.461,1.633-1.011,2.642c0.332,0.744,1.063,1.186,1.827,1.186c0.272,0,0.55-0.057,0.814-0.175  c0.404-0.181,9.909-4.586,9.909-18.547S47.009,16.559,46.604,16.378z M37.85,19.136c-1.008-0.451-2.191-0.004-2.646,1.003  c-0.453,1.008-0.004,2.191,1.003,2.646c0.059,0.026,5.861,2.742,5.861,11.772c0,8.905-5.637,11.666-5.86,11.771  c-1.008,0.454-1.457,1.638-1.004,2.645c0.334,0.741,1.063,1.181,1.825,1.181c0.274,0,0.554-0.058,0.819-0.177  c0.336-0.151,8.22-3.832,8.22-15.42S38.185,19.287,37.85,19.136z"/><text x="0" y="79" fill="#000000" font-size="5px" font-weight="bold" font-family="'Helvetica Neue', Helvetica, Arial-Unicode, Arial, Sans-serif">Created by Fakhri Rossi</text><text x="0" y="84" fill="#000000" font-size="5px" font-weight="bold" font-family="'Helvetica Neue', Helvetica, Arial-Unicode, Arial, Sans-serif">from the Noun Project</text></svg>