<svg xmlns="http://www.w3.org/2000/svg" xmlns:xlink="http://www.w3.org/1999/xlink" version="1.1" x="0px" y="0px" viewBox="0 0 64 80" enable-background="new 0 0 64 64" xml:space="preserve"><path d="M47.915,15.277v33.447c0,2.082-1.694,3.775-3.776,3.775h-1.079c-2.082,0-3.776-1.693-3.776-3.775V15.277  c0-2.082,1.694-3.777,3.776-3.777h1.079C46.22,11.5,47.915,13.195,47.915,15.277z M20.941,11.5h-1.079  c-2.082,0-3.776,1.695-3.776,3.777v33.447c0,2.082,1.694,3.775,3.776,3.775h1.079c2.082,0,3.776-1.693,3.776-3.775V15.277  C24.717,13.195,23.023,11.5,20.941,11.5z"/><text x="0" y="79" fill="#000000" font-size="5px" font-weight="bold" font-family="'Helvetica Neue', Helvetica, Arial-Unicode, Arial, Sans-serif">Created by Fakhri Rossi</text><text x="0" y="84" fill="#000000" font-size="5px" font-weight="bold" font-family="'Helvetica Neue', Helvetica, Arial-Unicode, Arial, Sans-serif">from the Noun Project</text></svg>