<svg xmlns="http://www.w3.org/2000/svg" xmlns:xlink="http://www.w3.org/1999/xlink" version="1.1" x="0px" y="0px" viewBox="0 0 64 80" enable-background="new 0 0 64 64" xml:space="preserve"><path d="M58.5,32c0,8.449-6.875,15.324-15.325,15.324c-0.12,0-0.236-0.016-0.35-0.035v3.6c0,0.342-0.182,0.658-0.478,0.828  c-0.147,0.086-0.313,0.127-0.477,0.127c-0.165,0-0.329-0.041-0.478-0.127l-9.639-5.566c-0.295-0.17-0.477-0.484-0.477-0.826  c0-0.34,0.182-0.654,0.477-0.824l9.639-5.566c0.149-0.084,0.313-0.127,0.478-0.127c0.165,0,0.33,0.043,0.477,0.127  c0.296,0.17,0.478,0.486,0.478,0.826v3.602c0.114-0.02,0.23-0.035,0.35-0.035c6.247,0,11.328-5.08,11.328-11.326  s-5.081-11.326-11.328-11.326h-5.278c-1.104,0-1.999-0.895-1.999-1.998s0.895-2,1.999-2h5.278C51.625,16.676,58.5,23.551,58.5,32z   M26.103,43.326h-5.278c-6.246,0-11.327-5.08-11.327-11.326s5.081-11.326,11.327-11.326c0.12,0,0.236-0.016,0.35-0.035v3.602  c0,0.34,0.182,0.656,0.478,0.826c0.147,0.084,0.313,0.127,0.477,0.127c0.165,0,0.329-0.043,0.478-0.127l9.639-5.566  c0.295-0.17,0.477-0.484,0.477-0.824c0-0.342-0.182-0.656-0.477-0.826l-9.639-5.566c-0.149-0.086-0.313-0.127-0.478-0.127  c-0.165,0-0.33,0.041-0.477,0.127c-0.296,0.17-0.478,0.486-0.478,0.828v3.6c-0.114-0.02-0.23-0.035-0.35-0.035  C12.375,16.676,5.5,23.551,5.5,32s6.875,15.324,15.325,15.324h5.278c1.104,0,1.999-0.896,1.999-2S27.207,43.326,26.103,43.326z"/><text x="0" y="79" fill="#000000" font-size="5px" font-weight="bold" font-family="'Helvetica Neue', Helvetica, Arial-Unicode, Arial, Sans-serif">Created by Fakhri Rossi</text><text x="0" y="84" fill="#000000" font-size="5px" font-weight="bold" font-family="'Helvetica Neue', Helvetica, Arial-Unicode, Arial, Sans-serif">from the Noun Project</text></svg>