<svg xmlns="http://www.w3.org/2000/svg" xmlns:xlink="http://www.w3.org/1999/xlink" version="1.1" x="0px" y="0px" viewBox="0 0 64 80" enable-background="new 0 0 64 64" xml:space="preserve"><path d="M58.048,40.563l-9.12-5.268c-0.141-0.081-0.296-0.119-0.452-0.119c-0.155,0-0.312,0.038-0.451,0.119  c-0.28,0.162-0.452,0.46-0.452,0.783v3.141h-8.574c-1.546,0-2.936-1.381-3.377-1.956L32.33,32l3.287-5.258  c0.21-0.263,1.632-1.961,3.381-1.961h8.574v3.14c0,0.323,0.172,0.622,0.452,0.783c0.14,0.08,0.296,0.119,0.451,0.119  c0.156,0,0.312-0.039,0.452-0.119l9.12-5.266c0.279-0.163,0.452-0.459,0.452-0.783c0-0.322-0.173-0.619-0.452-0.78l-9.12-5.267  c-0.141-0.082-0.296-0.121-0.452-0.121c-0.155,0-0.312,0.039-0.451,0.121c-0.28,0.16-0.452,0.459-0.452,0.782v3.142h-8.574  c-4.034,0-6.58,3.378-6.857,3.763c-0.026,0.038-0.052,0.076-0.076,0.115l-2.241,3.582l-2.611-4.176  c-0.019-0.028-0.037-0.059-0.057-0.086c-0.826-1.188-3.054-3.2-6.167-3.2H7.625c-1.174,0-2.125,0.952-2.125,2.125  c0,1.174,0.951,2.125,2.125,2.125h13.363c1.546,0,2.525,1.181,2.661,1.354L27.317,32l-3.688,5.898  c-0.009,0.014-0.937,1.321-2.642,1.321H7.625c-1.174,0-2.125,0.952-2.125,2.125c0,1.174,0.951,2.125,2.125,2.125h13.363  c3.226,0,5.416-2.045,6.224-3.286l2.611-4.176l2.241,3.583c0.024,0.039,0.05,0.077,0.076,0.114c0.277,0.385,2.823,3.765,6.857,3.765  h8.574v3.14c0,0.323,0.172,0.621,0.452,0.782c0.14,0.081,0.296,0.121,0.451,0.121c0.156,0,0.312-0.04,0.452-0.121l9.12-5.266  c0.279-0.162,0.452-0.459,0.452-0.781C58.5,41.021,58.327,40.725,58.048,40.563z"/><text x="0" y="79" fill="#000000" font-size="5px" font-weight="bold" font-family="'Helvetica Neue', Helvetica, Arial-Unicode, Arial, Sans-serif">Created by Fakhri Rossi</text><text x="0" y="84" fill="#000000" font-size="5px" font-weight="bold" font-family="'Helvetica Neue', Helvetica, Arial-Unicode, Arial, Sans-serif">from the Noun Project</text></svg>