<svg xmlns="http://www.w3.org/2000/svg" xmlns:xlink="http://www.w3.org/1999/xlink" version="1.1" x="0px" y="0px" viewBox="0 0 64 80" enable-background="new 0 0 64 64" xml:space="preserve"><path d="M31.249,32c0,0.716-0.382,1.378-1.002,1.735L10.005,45.422c-0.31,0.178-0.655,0.269-1.001,0.269  c-0.348,0-0.692-0.09-1.003-0.269C7.382,45.065,7,44.403,7,43.687V20.313c0-0.716,0.382-1.378,1.001-1.735  c0.311-0.18,0.655-0.269,1.003-0.269c0.346,0,0.691,0.089,1.001,0.269l20.242,11.687C30.867,30.623,31.249,31.284,31.249,32z   M55.999,30.265L35.756,18.578c-0.31-0.18-0.655-0.269-1.001-0.269s-0.692,0.089-1.002,0.269c-0.62,0.357-1.002,1.019-1.002,1.735  v23.374c0,0.716,0.382,1.378,1.002,1.735c0.31,0.178,0.656,0.269,1.002,0.269s0.691-0.09,1.001-0.269l20.243-11.687  C56.618,33.378,57,32.716,57,32S56.618,30.623,55.999,30.265z"/><text x="0" y="79" fill="#000000" font-size="5px" font-weight="bold" font-family="'Helvetica Neue', Helvetica, Arial-Unicode, Arial, Sans-serif">Created by Fakhri Rossi</text><text x="0" y="84" fill="#000000" font-size="5px" font-weight="bold" font-family="'Helvetica Neue', Helvetica, Arial-Unicode, Arial, Sans-serif">from the Noun Project</text></svg>