<svg xmlns="http://www.w3.org/2000/svg" xmlns:xlink="http://www.w3.org/1999/xlink" version="1.1" x="0px" y="0px" viewBox="0 0 64 80" enable-background="new 0 0 64 64" xml:space="preserve"><path d="M33.753,30.265l20.242-11.687c0.31-0.18,0.655-0.269,1.001-0.269c0.347,0,0.692,0.088,1.002,0.269  C56.618,18.935,57,19.597,57,20.313v23.374c0,0.716-0.382,1.378-1.002,1.735c-0.31,0.179-0.655,0.269-1.002,0.269  c-0.346,0-0.691-0.09-1.001-0.269L33.753,33.735c-0.62-0.358-1.002-1.02-1.002-1.735S33.133,30.622,33.753,30.265z M7,32  c0,0.716,0.382,1.377,1.002,1.735l20.242,11.687c0.31,0.179,0.655,0.269,1.001,0.269s0.692-0.09,1.002-0.269  c0.62-0.357,1.002-1.019,1.002-1.735V20.313c0-0.716-0.382-1.378-1.002-1.735c-0.31-0.18-0.656-0.269-1.002-0.269  s-0.692,0.088-1.001,0.269L8.002,30.265C7.382,30.622,7,31.284,7,32z"/><text x="0" y="79" fill="#000000" font-size="5px" font-weight="bold" font-family="'Helvetica Neue', Helvetica, Arial-Unicode, Arial, Sans-serif">Created by Fakhri Rossi</text><text x="0" y="84" fill="#000000" font-size="5px" font-weight="bold" font-family="'Helvetica Neue', Helvetica, Arial-Unicode, Arial, Sans-serif">from the Noun Project</text></svg>